<mxfile host="Electron" modified="2024-05-06T18:10:31.313Z" agent="Mozilla/5.0 (X11; Linux x86_64) AppleWebKit/537.36 (KHTML, like Gecko) draw.io/24.2.5 Chrome/120.0.6099.109 Electron/28.1.0 Safari/537.36" etag="6JZyY2Bqw6WCTudnROTU" version="24.2.5" type="device">
  <diagram name="Page-1" id="5f0bae14-7c28-e335-631c-24af17079c00">
    <mxGraphModel dx="961" dy="600" grid="1" gridSize="10" guides="1" tooltips="1" connect="1" arrows="1" fold="1" page="1" pageScale="1" pageWidth="1169" pageHeight="827" background="none" math="0" shadow="0">
      <root>
        <mxCell id="0" />
        <mxCell id="1" parent="0" />
        <mxCell id="39150e848f15840c-2" value="433MHz_to_MQTT" style="verticalAlign=top;align=left;spacingTop=8;spacingLeft=2;spacingRight=12;shape=cube;size=10;direction=south;fontStyle=0;html=1;rounded=0;shadow=0;comic=0;labelBackgroundColor=none;strokeWidth=1;fontFamily=Helvetica;fontSize=12;fillColor=#fff2cc;strokeColor=#d6b656;" parent="1" vertex="1">
          <mxGeometry x="450" y="220" width="400" height="120" as="geometry" />
        </mxCell>
        <mxCell id="39150e848f15840c-3" value="LAN" style="verticalAlign=top;align=left;spacingTop=8;spacingLeft=2;spacingRight=12;shape=cube;size=10;direction=south;fontStyle=0;html=1;rounded=0;shadow=0;comic=0;labelBackgroundColor=none;strokeWidth=1;fontFamily=Helvetica;fontSize=12;" parent="1" vertex="1">
          <mxGeometry x="930" y="230" width="150" height="90" as="geometry" />
        </mxCell>
        <mxCell id="39150e848f15840c-9" value="WiFi&lt;div style=&quot;font-size: 12px;&quot;&gt;&lt;br style=&quot;font-size: 12px;&quot;&gt;&lt;/div&gt;" style="ellipse;whiteSpace=wrap;html=1;rounded=0;shadow=0;comic=0;labelBackgroundColor=none;strokeWidth=1;fontFamily=Helvetica;fontSize=12;align=left;direction=west;verticalAlign=middle;labelPosition=right;verticalLabelPosition=middle;" parent="1" vertex="1">
          <mxGeometry x="870" y="270" width="20" height="20" as="geometry" />
        </mxCell>
        <mxCell id="39150e848f15840c-12" style="edgeStyle=none;rounded=0;html=1;labelBackgroundColor=none;startArrow=none;startFill=0;startSize=8;endArrow=none;endFill=0;endSize=16;fontFamily=Helvetica;fontSize=12;exitX=0;exitY=0.5;exitDx=0;exitDy=0;" parent="1" source="sCqgUqoKJqbZPPgW2IgT-26" target="39150e848f15840c-9" edge="1">
          <mxGeometry relative="1" as="geometry">
            <mxPoint x="1010.0000000000002" y="310.0000000000002" as="sourcePoint" />
          </mxGeometry>
        </mxCell>
        <mxCell id="_g9zdEcOYTViBknSVJwx-2" style="edgeStyle=orthogonalEdgeStyle;rounded=0;orthogonalLoop=1;jettySize=auto;html=1;exitX=0;exitY=0.5;exitDx=0;exitDy=0;entryX=0;entryY=0.5;entryDx=0;entryDy=0;endArrow=none;endFill=0;fontFamily=Helvetica;fontSize=12;" parent="1" source="beCBsW8G4Jq02-bQAGJO-1" target="sCqgUqoKJqbZPPgW2IgT-4" edge="1">
          <mxGeometry relative="1" as="geometry">
            <mxPoint x="550.0000000000002" y="310" as="targetPoint" />
          </mxGeometry>
        </mxCell>
        <mxCell id="beCBsW8G4Jq02-bQAGJO-1" value="&lt;font style=&quot;font-size: 12px;&quot;&gt;433MHz Antenna&lt;/font&gt;" style="ellipse;whiteSpace=wrap;html=1;rounded=0;shadow=0;comic=0;labelBackgroundColor=none;strokeWidth=1;fontFamily=Helvetica;fontSize=12;align=left;direction=west;verticalAlign=middle;labelPosition=right;verticalLabelPosition=middle;" parent="1" vertex="1">
          <mxGeometry x="375" y="270" width="20" height="20" as="geometry" />
        </mxCell>
        <mxCell id="sCqgUqoKJqbZPPgW2IgT-8" style="edgeStyle=orthogonalEdgeStyle;rounded=0;orthogonalLoop=1;jettySize=auto;html=1;exitX=1;exitY=0.5;exitDx=0;exitDy=0;entryX=1;entryY=0.5;entryDx=0;entryDy=0;endArrow=halfCircle;endFill=0;fontFamily=Helvetica;fontSize=12;" edge="1" parent="1" source="sCqgUqoKJqbZPPgW2IgT-2" target="39150e848f15840c-9">
          <mxGeometry relative="1" as="geometry">
            <mxPoint x="782.5" y="300" as="sourcePoint" />
            <mxPoint x="775" y="460" as="targetPoint" />
            <Array as="points">
              <mxPoint x="860" y="280" />
              <mxPoint x="860" y="280" />
            </Array>
          </mxGeometry>
        </mxCell>
        <mxCell id="sCqgUqoKJqbZPPgW2IgT-23" style="edgeStyle=orthogonalEdgeStyle;rounded=0;orthogonalLoop=1;jettySize=auto;html=1;entryX=0.5;entryY=0;entryDx=0;entryDy=0;endArrow=none;endFill=0;exitX=0.5;exitY=0;exitDx=0;exitDy=0;fontFamily=Helvetica;fontSize=12;" edge="1" parent="1" source="sCqgUqoKJqbZPPgW2IgT-2" target="sCqgUqoKJqbZPPgW2IgT-18">
          <mxGeometry relative="1" as="geometry">
            <mxPoint x="860" y="380" as="sourcePoint" />
          </mxGeometry>
        </mxCell>
        <mxCell id="sCqgUqoKJqbZPPgW2IgT-42" style="edgeStyle=orthogonalEdgeStyle;rounded=0;orthogonalLoop=1;jettySize=auto;html=1;exitX=0.25;exitY=1;exitDx=0;exitDy=0;entryX=0.75;entryY=1;entryDx=0;entryDy=0;" edge="1" parent="1" source="sCqgUqoKJqbZPPgW2IgT-2" target="sCqgUqoKJqbZPPgW2IgT-4">
          <mxGeometry relative="1" as="geometry" />
        </mxCell>
        <mxCell id="sCqgUqoKJqbZPPgW2IgT-43" value="5V / GND" style="edgeLabel;html=1;align=center;verticalAlign=middle;resizable=0;points=[];" vertex="1" connectable="0" parent="sCqgUqoKJqbZPPgW2IgT-42">
          <mxGeometry x="0.059" y="-1" relative="1" as="geometry">
            <mxPoint as="offset" />
          </mxGeometry>
        </mxCell>
        <mxCell id="sCqgUqoKJqbZPPgW2IgT-2" value="RPi Pico W" style="html=1;dropTarget=0;whiteSpace=wrap;align=left;fontFamily=Helvetica;fontSize=12;" vertex="1" parent="1">
          <mxGeometry x="717.5" y="260" width="105" height="40" as="geometry" />
        </mxCell>
        <mxCell id="sCqgUqoKJqbZPPgW2IgT-3" value="" style="shape=module;jettyWidth=8;jettyHeight=4;fontFamily=Helvetica;fontSize=12;" vertex="1" parent="sCqgUqoKJqbZPPgW2IgT-2">
          <mxGeometry x="1" width="20" height="20" relative="1" as="geometry">
            <mxPoint x="-27" y="7" as="offset" />
          </mxGeometry>
        </mxCell>
        <mxCell id="sCqgUqoKJqbZPPgW2IgT-12" style="edgeStyle=orthogonalEdgeStyle;rounded=0;orthogonalLoop=1;jettySize=auto;html=1;exitX=1;exitY=0.5;exitDx=0;exitDy=0;entryX=0;entryY=0.5;entryDx=0;entryDy=0;endArrow=none;endFill=0;fontFamily=Helvetica;fontSize=12;" edge="1" parent="1" source="sCqgUqoKJqbZPPgW2IgT-4" target="sCqgUqoKJqbZPPgW2IgT-9">
          <mxGeometry relative="1" as="geometry" />
        </mxCell>
        <mxCell id="sCqgUqoKJqbZPPgW2IgT-4" value="&lt;span style=&quot;text-wrap: nowrap; font-size: 12px;&quot;&gt;433MHz Receiver&lt;/span&gt;&lt;div style=&quot;text-wrap: nowrap; font-size: 12px;&quot;&gt;HW Module&lt;/div&gt;" style="html=1;dropTarget=0;whiteSpace=wrap;align=left;fontFamily=Helvetica;fontSize=12;" vertex="1" parent="1">
          <mxGeometry x="465" y="260" width="135" height="40" as="geometry" />
        </mxCell>
        <mxCell id="sCqgUqoKJqbZPPgW2IgT-5" value="" style="shape=module;jettyWidth=8;jettyHeight=4;fontFamily=Helvetica;fontSize=12;" vertex="1" parent="sCqgUqoKJqbZPPgW2IgT-4">
          <mxGeometry x="1" width="20" height="20" relative="1" as="geometry">
            <mxPoint x="-27" y="7" as="offset" />
          </mxGeometry>
        </mxCell>
        <mxCell id="sCqgUqoKJqbZPPgW2IgT-13" style="edgeStyle=orthogonalEdgeStyle;rounded=0;orthogonalLoop=1;jettySize=auto;html=1;exitX=1;exitY=0.5;exitDx=0;exitDy=0;entryX=0;entryY=0.5;entryDx=0;entryDy=0;endArrow=none;endFill=0;fontFamily=Helvetica;fontSize=12;" edge="1" parent="1" source="sCqgUqoKJqbZPPgW2IgT-9" target="sCqgUqoKJqbZPPgW2IgT-2">
          <mxGeometry relative="1" as="geometry" />
        </mxCell>
        <mxCell id="sCqgUqoKJqbZPPgW2IgT-9" value="&lt;div style=&quot;font-size: 12px;&quot;&gt;Converter&lt;/div&gt;5V -&amp;gt; 3.3V" style="html=1;dropTarget=0;whiteSpace=wrap;align=left;fontFamily=Helvetica;fontSize=12;" vertex="1" parent="1">
          <mxGeometry x="615" y="260" width="90" height="40" as="geometry" />
        </mxCell>
        <mxCell id="sCqgUqoKJqbZPPgW2IgT-10" value="" style="shape=module;jettyWidth=8;jettyHeight=4;fontFamily=Helvetica;fontSize=12;" vertex="1" parent="sCqgUqoKJqbZPPgW2IgT-9">
          <mxGeometry x="1" width="20" height="20" relative="1" as="geometry">
            <mxPoint x="-27" y="7" as="offset" />
          </mxGeometry>
        </mxCell>
        <mxCell id="sCqgUqoKJqbZPPgW2IgT-16" style="rounded=0;orthogonalLoop=1;jettySize=auto;html=1;exitX=1;exitY=0.5;exitDx=0;exitDy=0;entryX=1;entryY=0.5;entryDx=0;entryDy=0;endArrow=halfCircle;endFill=0;fontFamily=Helvetica;fontSize=12;" edge="1" parent="1" source="sCqgUqoKJqbZPPgW2IgT-14" target="beCBsW8G4Jq02-bQAGJO-1">
          <mxGeometry relative="1" as="geometry" />
        </mxCell>
        <mxCell id="sCqgUqoKJqbZPPgW2IgT-17" value="&lt;div style=&quot;font-size: 12px;&quot;&gt;&lt;br style=&quot;font-size: 12px;&quot;&gt;&lt;/div&gt;" style="edgeLabel;html=1;align=center;verticalAlign=middle;resizable=0;points=[];fontFamily=Helvetica;fontSize=12;" vertex="1" connectable="0" parent="sCqgUqoKJqbZPPgW2IgT-16">
          <mxGeometry x="0.0242" y="-1" relative="1" as="geometry">
            <mxPoint as="offset" />
          </mxGeometry>
        </mxCell>
        <mxCell id="sCqgUqoKJqbZPPgW2IgT-14" value="&lt;span style=&quot;text-wrap: nowrap; font-size: 12px;&quot;&gt;433MHz Sender&lt;/span&gt;" style="html=1;dropTarget=0;whiteSpace=wrap;align=left;fontFamily=Helvetica;fontSize=12;" vertex="1" parent="1">
          <mxGeometry x="220" y="260" width="125" height="40" as="geometry" />
        </mxCell>
        <mxCell id="sCqgUqoKJqbZPPgW2IgT-15" value="" style="shape=module;jettyWidth=8;jettyHeight=4;fontFamily=Helvetica;fontSize=12;" vertex="1" parent="sCqgUqoKJqbZPPgW2IgT-14">
          <mxGeometry x="1" width="20" height="20" relative="1" as="geometry">
            <mxPoint x="-27" y="7" as="offset" />
          </mxGeometry>
        </mxCell>
        <mxCell id="sCqgUqoKJqbZPPgW2IgT-18" value="Micro USB" style="ellipse;whiteSpace=wrap;html=1;rounded=0;shadow=0;comic=0;labelBackgroundColor=none;strokeWidth=1;fontFamily=Helvetica;fontSize=12;align=center;direction=west;verticalAlign=bottom;labelPosition=center;verticalLabelPosition=top;" vertex="1" parent="1">
          <mxGeometry x="760" y="140" width="20" height="20" as="geometry" />
        </mxCell>
        <mxCell id="sCqgUqoKJqbZPPgW2IgT-25" value="" style="edgeStyle=orthogonalEdgeStyle;rounded=0;orthogonalLoop=1;jettySize=auto;html=1;endArrow=halfCircle;endFill=0;fontFamily=Helvetica;fontSize=12;" edge="1" parent="1" source="sCqgUqoKJqbZPPgW2IgT-24" target="sCqgUqoKJqbZPPgW2IgT-18">
          <mxGeometry relative="1" as="geometry" />
        </mxCell>
        <mxCell id="sCqgUqoKJqbZPPgW2IgT-41" value="Power &amp;amp; Data" style="edgeLabel;html=1;align=center;verticalAlign=middle;resizable=0;points=[];" vertex="1" connectable="0" parent="sCqgUqoKJqbZPPgW2IgT-25">
          <mxGeometry x="-0.0006" y="-1" relative="1" as="geometry">
            <mxPoint as="offset" />
          </mxGeometry>
        </mxCell>
        <mxCell id="sCqgUqoKJqbZPPgW2IgT-24" value="Admin" style="shape=umlActor;verticalLabelPosition=bottom;verticalAlign=top;html=1;fontFamily=Helvetica;fontSize=12;" vertex="1" parent="1">
          <mxGeometry x="950" y="120" width="30" height="60" as="geometry" />
        </mxCell>
        <mxCell id="sCqgUqoKJqbZPPgW2IgT-26" value="MQTT Broker" style="html=1;dropTarget=0;whiteSpace=wrap;align=left;fontFamily=Helvetica;fontSize=12;" vertex="1" parent="1">
          <mxGeometry x="945" y="260" width="110" height="40" as="geometry" />
        </mxCell>
        <mxCell id="sCqgUqoKJqbZPPgW2IgT-27" value="" style="shape=module;jettyWidth=8;jettyHeight=4;fontFamily=Helvetica;fontSize=12;" vertex="1" parent="sCqgUqoKJqbZPPgW2IgT-26">
          <mxGeometry x="1" width="20" height="20" relative="1" as="geometry">
            <mxPoint x="-27" y="7" as="offset" />
          </mxGeometry>
        </mxCell>
        <mxCell id="sCqgUqoKJqbZPPgW2IgT-39" value="" style="edgeStyle=orthogonalEdgeStyle;rounded=0;orthogonalLoop=1;jettySize=auto;html=1;endArrow=halfCircle;endFill=0;fontFamily=Helvetica;fontSize=12;" edge="1" parent="1" source="sCqgUqoKJqbZPPgW2IgT-29" target="sCqgUqoKJqbZPPgW2IgT-18">
          <mxGeometry relative="1" as="geometry" />
        </mxCell>
        <mxCell id="sCqgUqoKJqbZPPgW2IgT-40" value="&lt;font style=&quot;font-size: 12px;&quot;&gt;Power&lt;/font&gt;" style="edgeLabel;html=1;align=center;verticalAlign=middle;resizable=0;points=[];fontFamily=Helvetica;fontSize=12;" vertex="1" connectable="0" parent="sCqgUqoKJqbZPPgW2IgT-39">
          <mxGeometry x="-0.0083" y="1" relative="1" as="geometry">
            <mxPoint as="offset" />
          </mxGeometry>
        </mxCell>
        <mxCell id="sCqgUqoKJqbZPPgW2IgT-29" value="5V Power Supply" style="html=1;dropTarget=0;whiteSpace=wrap;align=left;fontFamily=Helvetica;fontSize=12;" vertex="1" parent="1">
          <mxGeometry x="550" y="130" width="130" height="40" as="geometry" />
        </mxCell>
        <mxCell id="sCqgUqoKJqbZPPgW2IgT-30" value="" style="shape=module;jettyWidth=8;jettyHeight=4;fontFamily=Helvetica;fontSize=12;" vertex="1" parent="sCqgUqoKJqbZPPgW2IgT-29">
          <mxGeometry x="1" width="20" height="20" relative="1" as="geometry">
            <mxPoint x="-27" y="7" as="offset" />
          </mxGeometry>
        </mxCell>
      </root>
    </mxGraphModel>
  </diagram>
</mxfile>
